<?xml version="1.0" encoding="utf-8"?>
<!-- Generator: Adobe Illustrator 16.0.3, SVG Export Plug-In . SVG Version: 6.00 Build 0)  -->
<!DOCTYPE svg PUBLIC "-//W3C//DTD SVG 1.1//EN" "http://www.w3.org/Graphics/SVG/1.1/DTD/svg11.dtd">
<svg version="1.1" id="Layer_1" xmlns="http://www.w3.org/2000/svg" xmlns:xlink="http://www.w3.org/1999/xlink" x="0px" y="0px"
	 width="595.28px" height="841.89px" viewBox="0 0 595.28 841.89" enable-background="new 0 0 595.28 841.89" xml:space="preserve">
<g display="none">
	<defs>
		<circle id="SVGID_1_" cx="-317" cy="21" r="151"/>
	</defs>
	<clipPath id="SVGID_2_" display="inline">
		<use xlink:href="#SVGID_1_"  overflow="visible"/>
	</clipPath>
	
		<rect x="-492" y="21" display="inline" clip-path="url(#SVGID_2_)" fill="#EE7E77" stroke="#000000" stroke-miterlimit="10" width="376" height="209.001"/>
	<polygon display="inline" clip-path="url(#SVGID_2_)" fill="#5E93BC" stroke="#000000" stroke-miterlimit="10" points="
		-117.001,125.5 -316.36,21.001 -316.36,-188 -118.002,-188 	"/>
	<polygon display="inline" clip-path="url(#SVGID_2_)" fill="#59B466" stroke="#000000" stroke-miterlimit="10" points="-316,21 
		-491,125.5 -491,-188 -316,-188 	"/>
	<use xlink:href="#SVGID_1_"  display="inline" overflow="visible" fill="none" stroke="#000000" stroke-miterlimit="10"/>
</g>
<g display="none">
	<g display="inline">
		<path fill="#FFFFFF" d="M-225.718-75.636c0,0-95.573,28.349-121.608,45.509c-11.8,7.777-32.351,27.522-37.988,40.737
			c-8.603,20.165-31.167,73.22-8.804,94.341c21.08,19.908,70.61-3.303,89.024-12.698c13.951-7.118,32.793-31.95,40.344-45.377
			C-249.545,19.834-225.718-75.636-225.718-75.636z"/>
		<path d="M-225.936-75.41c-1.527,0.461-9.776,2.963-23.133,7.264c-7.422,2.405-16.422,5.361-26.698,8.889
			c-10.268,3.553-21.824,7.646-34.278,12.496c-6.22,2.439-12.678,5.042-19.229,8.014c-1.636,0.746-3.287,1.498-4.95,2.255
			c-1.627,0.825-3.268,1.657-4.921,2.495c-0.821,0.428-1.667,0.823-2.476,1.282c-0.798,0.476-1.6,0.954-2.403,1.433
			c-0.804,0.479-1.611,0.959-2.421,1.442c-0.792,0.453-1.567,1.064-2.356,1.591c-3.078,2.208-6.067,4.666-9.014,7.238
			c-2.952,2.569-5.826,5.302-8.643,8.146c-2.823,2.839-5.567,5.819-8.175,8.953c-2.606,3.132-5.117,6.404-7.267,9.915
			c-0.501,0.894-1.036,1.776-1.514,2.683c-0.431,0.934-0.897,1.822-1.305,2.795c-0.812,1.941-1.627,3.89-2.446,5.846
			c-1.614,3.917-3.182,7.884-4.67,11.905c-2.971,8.042-5.654,16.307-7.665,24.794c-1.974,8.477-3.357,17.225-3.045,25.958
			c0.177,4.351,0.783,8.704,2.177,12.787c1.399,4.07,3.607,7.84,6.632,10.838c0.17,0.17,0.398,0.437,0.519,0.526l0.64,0.538
			l1.281,1.075l1.292,0.861c0.428,0.289,0.846,0.588,1.333,0.821c0.938,0.502,1.866,1.021,2.872,1.392
			c0.497,0.194,0.976,0.432,1.487,0.593l1.532,0.481c4.107,1.246,8.475,1.622,12.812,1.559c8.706-0.165,17.336-2.058,25.653-4.534
			c8.331-2.506,16.393-5.692,24.207-9.165c3.906-1.743,7.749-3.569,11.524-5.465c0.92-0.466,1.84-0.932,2.757-1.396
			c0.91-0.532,1.841-1.053,2.729-1.59l2.444-1.704l2.399-1.9c3.147-2.61,6.085-5.461,8.888-8.396c2.767-2.973,5.428-6,7.939-9.103
			c2.502-3.108,4.927-6.23,7.183-9.414c2.265-3.173,4.465-6.343,6.441-9.573c0.508-0.8,0.968-1.619,1.451-2.423l0.358-0.604
			l0.298-0.583l0.647-1.263c0.43-0.841,0.859-1.679,1.286-2.513c0.437-0.833,0.858-1.666,1.202-2.509
			c0.734-1.68,1.463-3.346,2.187-5c0.734-1.646,1.345-3.368,2.015-5.027c0.646-1.674,1.324-3.318,1.928-4.978
			c0.601-1.662,1.195-3.308,1.784-4.939c1.206-3.252,2.274-6.489,3.35-9.648c4.243-12.66,7.901-24.356,11.018-34.76
			c1.526-5.213,2.955-10.091,4.276-14.602c1.306-4.516,2.506-8.664,3.59-12.411C-228.572-65.543-226.345-73.873-225.936-75.41z
			 M-225.572-75.6c0,0-2.021,8.688-5.843,23.825c-1.902,7.571-4.31,16.74-7.215,27.22c-2.939,10.47-6.274,22.284-10.405,35.033
			c-1.044,3.184-2.077,6.444-3.253,9.73c-0.574,1.648-1.153,3.311-1.738,4.989c-0.588,1.677-1.254,3.347-1.886,5.043
			c-0.661,1.691-1.246,3.408-1.984,5.119c-0.727,1.713-1.459,3.439-2.197,5.179c-0.353,0.884-0.766,1.724-1.19,2.557
			c-0.418,0.84-0.837,1.683-1.258,2.528l-0.632,1.271l-0.345,0.687l-0.361,0.626c-0.486,0.832-0.953,1.684-1.463,2.508
			c-4.009,6.634-8.635,13.083-13.719,19.403c-5.114,6.292-10.654,12.507-17.208,17.995c-0.843,0.662-1.688,1.326-2.534,1.991
			c-0.913,0.626-1.828,1.254-2.745,1.883c-0.914,0.527-1.831,1.055-2.749,1.584c-0.971,0.488-1.943,0.977-2.918,1.466
			c-3.821,1.896-7.714,3.724-11.673,5.468c-7.917,3.489-16.12,6.635-24.625,9.125c-8.498,2.453-17.34,4.335-26.428,4.438
			c-4.528,0.029-9.138-0.395-13.561-1.771l-1.65-0.534c-0.55-0.18-1.074-0.439-1.611-0.655c-1.086-0.414-2.104-0.986-3.125-1.548
			c-0.519-0.255-1.009-0.604-1.502-0.942l-1.473-1.018l-1.271-1.085l-0.636-0.543c-0.074-0.067-0.059-0.042-0.206-0.185l-0.15-0.159
			l-0.3-0.317c-3.299-3.308-5.671-7.446-7.134-11.801c-1.459-4.371-2.056-8.935-2.212-13.445c-0.263-9.051,1.216-17.939,3.268-26.52
			c2.092-8.587,4.852-16.903,7.893-24.979c1.523-4.038,3.125-8.016,4.77-11.938c0.833-1.956,1.663-3.904,2.489-5.845
			c0.412-0.969,0.925-1.944,1.382-2.912c0.506-0.945,1.063-1.853,1.59-2.778c2.242-3.608,4.815-6.914,7.478-10.075
			c2.666-3.161,5.457-6.152,8.324-9.001c5.729-5.708,11.669-10.934,17.977-15.432c0.808-0.53,1.541-1.104,2.402-1.593
			c0.829-0.485,1.655-0.968,2.478-1.449s1.643-0.96,2.459-1.438c0.826-0.458,1.679-0.849,2.511-1.274
			c1.675-0.831,3.336-1.656,4.985-2.474c1.678-0.748,3.343-1.489,4.994-2.225c6.607-2.93,13.1-5.483,19.352-7.875
			c12.516-4.753,24.114-8.751,34.417-12.22c10.313-3.443,19.341-6.325,26.784-8.668c14.896-4.658,23.461-7.151,23.461-7.15
			l0.247-0.072L-225.572-75.6z"/>
	</g>
	<g display="inline">
		<line fill="#FFFFFF" x1="-407.658" y1="118.219" x2="-262.477" y2="-37.469"/>
		<polygon points="-409.852,116.173 -262.477,-37.469 -405.464,120.265 		"/>
	</g>
	<g display="inline">
		<line fill="#FFFFFF" x1="-308.143" y1="-9.025" x2="-318.358" y2="22.457"/>
		<path d="M-308-8.979c0,0-0.468,2.023-1.23,5.038c-0.376,1.509-0.811,3.271-1.306,5.149c-0.479,1.883-1.033,3.878-1.573,5.878
			c-0.254,1.005-0.508,2.01-0.757,2.999c-0.235,0.995-0.486,1.966-0.773,2.893c-0.303,0.921-0.617,1.805-0.969,2.625
			c-0.334,0.826-0.674,1.599-1.012,2.305c-1.316,2.835-2.595,4.595-2.595,4.595l-0.285-0.093c0,0-0.002-2.175,0.597-5.243
			c0.142-0.77,0.32-1.595,0.535-2.46c0.196-0.871,0.46-1.771,0.757-2.694c0.312-0.918,0.679-1.853,1.072-2.795
			c0.379-0.948,0.764-1.91,1.148-2.873c0.737-1.936,1.46-3.875,2.179-5.682c0.701-1.811,1.384-3.493,1.966-4.935
			c1.153-2.888,1.962-4.801,1.962-4.801L-308-8.979z"/>
	</g>
	<g display="inline">
		<line fill="#FFFFFF" x1="-355.545" y1="21.279" x2="-366.78" y2="74.383"/>
		<path d="M-355.398,21.311c0,0-0.552,3.351-1.38,8.377c-0.816,5.028-2.035,11.706-3.21,18.392
			c-0.284,1.673-0.568,3.347-0.847,4.995c-0.264,1.651-0.544,3.271-0.861,4.83c-0.333,1.555-0.676,3.054-1.058,4.463
			c-0.363,1.413-0.731,2.744-1.096,3.967c-1.422,4.9-2.783,8.08-2.783,8.08l-0.294-0.063c0,0,0.043-3.458,0.729-8.515
			c0.162-1.266,0.364-2.632,0.604-4.071c0.221-1.443,0.514-2.953,0.84-4.509c0.342-1.553,0.742-3.148,1.169-4.765
			c0.412-1.62,0.83-3.265,1.249-4.91c1.633-6.589,3.223-13.188,4.513-18.116c1.279-4.931,2.131-8.218,2.131-8.218L-355.398,21.311z"
			/>
	</g>
	<g display="inline">
		<line fill="#FFFFFF" x1="-270.947" y1="-17.393" x2="-290.055" y2="-7.895"/>
		<path d="M-270.881-17.259c0,0-1.114,0.754-2.814,1.828c-0.847,0.542-1.834,1.178-2.905,1.833
			c-1.063,0.669-2.218,1.342-3.366,2.029c-1.155,0.672-2.236,1.494-3.347,2.069c-1.119,0.556-2.236,0.932-3.22,1.2
			c-0.989,0.257-1.839,0.421-2.461,0.479c-0.617,0.07-0.994,0.061-0.994,0.061l-0.133-0.269c0,0,0.22-0.306,0.648-0.755
			c0.422-0.461,1.065-1.039,1.867-1.673c0.808-0.623,1.781-1.285,2.901-1.842c1.128-0.538,2.436-0.904,3.669-1.419
			c1.24-0.5,2.475-1.015,3.649-1.458c1.168-0.459,2.271-0.862,3.215-1.21c1.883-0.707,3.157-1.14,3.157-1.14L-270.881-17.259z"/>
	</g>
	<g display="inline">
		<line fill="#FFFFFF" x1="-298.717" y1="36" x2="-341.891" y2="47.692"/>
		<path d="M-298.678,36.145c0,0-2.651,0.904-6.646,2.198c-3.984,1.33-9.331,2.975-14.667,4.662
			c-1.331,0.432-2.662,0.864-3.973,1.289c-1.306,0.44-2.597,0.853-3.859,1.208c-1.266,0.339-2.495,0.646-3.676,0.88
			c-1.176,0.254-2.294,0.469-3.333,0.643c-4.146,0.732-7.021,0.813-7.021,0.813l-0.078-0.289c0,0,2.522-1.381,6.471-2.841
			c0.985-0.374,2.059-0.752,3.202-1.127c1.138-0.394,2.354-0.75,3.618-1.096c1.268-0.33,2.591-0.625,3.941-0.904
			c1.346-0.294,2.713-0.593,4.08-0.892c5.458-1.236,10.904-2.515,15.015-3.376c4.102-0.898,6.847-1.456,6.847-1.456L-298.678,36.145
			z"/>
	</g>
</g>
<g>
	<g>
		<path fill="#8EC741" d="M257.514,26.745c-18.463,3.715-36.717,8.874-54.666,14.526C168.72,52.02,134.246,65.439,104.636,85.84
			c-13.726,9.456-26.466,20.711-35.519,34.835c-4.499,7.018-7.534,15.004-10.583,22.723c-3.937,9.964-7.155,20.229-9.188,30.755
			c-4.036,20.911-2.847,46.068,15.346,60.292c17.372,13.581,41.525,11.601,61.82,7.306c16.613-3.516,34.862-9.027,49.068-18.622
			c13.779-9.307,24.543-22.406,33.726-36.105c19.833-29.589,32.757-63.975,43.339-97.794c5.474-17.491,10.444-35.283,14.095-53.257
			c1.917-9.443-12.54-13.464-14.465-3.988c-3.714,18.291-8.812,36.375-14.381,54.174c-10.441,33.368-23.4,66.881-43.279,95.86
			c-8.497,12.386-18.885,23.986-31.703,31.341c-6.55,3.759-13.563,6.106-21.191,8.649c-9.738,3.245-19.848,5.918-30.048,7.187
			c-18.733,2.33-40.382-0.137-47.195-20.652c-6.526-19.654,1.362-42.777,8.521-61.157c5.775-14.828,13.109-26.545,24.831-37.251
			c12.728-11.625,27.891-20.504,43.188-28.283c29.582-15.045,61.468-25.612,93.474-34.15c8.938-2.385,17.938-4.665,27.011-6.49
			C270.98,39.303,266.958,24.846,257.514,26.745z"/>
	</g>
</g>
<g>
	<line fill="#FFFFFF" x1="49.939" y1="247.021" x2="203.31" y2="93.614"/>
	<g>
		<path d="M53.475,250.557c34.116-34.124,68.231-68.248,102.348-102.371c17.008-17.012,34.016-34.024,51.022-51.036
			c4.563-4.563-2.508-11.635-7.07-7.07c-34.116,34.124-68.231,68.247-102.348,102.371c-17.008,17.013-34.016,34.024-51.022,51.036
			C41.841,248.05,48.912,255.121,53.475,250.557L53.475,250.557z"/>
	</g>
</g>
<g>
	<line fill="#FFFFFF" x1="91.575" y1="151.498" x2="91.575" y2="204.169"/>
	<g>
		<path d="M86.575,151.498c0,17.557,0,35.114,0,52.671c0,6.448,10,6.448,10,0c0-17.557,0-35.114,0-52.671
			C96.575,145.05,86.575,145.05,86.575,151.498L86.575,151.498z"/>
	</g>
</g>
<g>
	<line fill="#FFFFFF" x1="164.877" y1="179.525" x2="121.315" y2="179.525"/>
	<g>
		<path d="M164.877,174.525c-14.521,0-29.041,0-43.562,0c-6.448,0-6.448,10,0,10c14.521,0,29.041,0,43.562,0
			C171.325,184.525,171.325,174.525,164.877,174.525L164.877,174.525z"/>
	</g>
</g>
<g>
	<line fill="#FFFFFF" x1="139.765" y1="122.894" x2="139.765" y2="153.993"/>
	<g>
		<path d="M134.765,122.894c0,10.366,0,20.733,0,31.1c0,6.448,10,6.448,10,0c0-10.366,0-20.733,0-31.1
			C144.765,116.445,134.765,116.445,134.765,122.894L134.765,122.894z"/>
	</g>
</g>
<g>
	<line fill="#FFFFFF" x1="190.519" y1="130.831" x2="169.084" y2="130.831"/>
	<g>
		<path d="M190.519,125.831c-7.145,0-14.29,0-21.435,0c-6.448,0-6.448,10,0,10c7.145,0,14.29,0,21.435,0
			C196.967,135.831,196.967,125.831,190.519,125.831L190.519,125.831z"/>
	</g>
</g>
<g>
	<path fill="#FFFFFF" d="M139.305,123.743c-2.372,0-4.601-0.926-6.274-2.606c-1.668-1.676-2.585-3.9-2.581-6.266
		c0.005-2.365,0.931-4.588,2.606-6.257c1.671-1.664,3.89-2.582,6.249-2.582c2.371,0,4.599,0.926,6.272,2.606
		c3.446,3.458,3.436,9.075-0.022,12.522C143.884,122.826,141.664,123.743,139.305,123.743z"/>
	<path d="M139.305,109.033c1.502,0,3.004,0.574,4.147,1.723c2.283,2.291,2.275,5.997-0.016,8.28
		c-1.142,1.138-2.637,1.707-4.132,1.707c-1.502,0-3.004-0.575-4.148-1.724c-2.281-2.29-2.275-5.997,0.017-8.279
		C136.315,109.602,137.81,109.033,139.305,109.033 M139.305,103.033c-3.158,0-6.13,1.228-8.367,3.457
		c-2.242,2.233-3.482,5.208-3.488,8.375s1.222,6.146,3.456,8.389c2.24,2.25,5.224,3.489,8.399,3.489c3.159,0,6.13-1.228,8.367-3.457
		c2.243-2.235,3.481-5.21,3.488-8.376c0.006-3.166-1.223-6.146-3.458-8.39C145.462,104.271,142.479,103.033,139.305,103.033
		L139.305,103.033z"/>
</g>
<g>
	<path fill="#FFFFFF" d="M172.757,188.393c-2.372,0-4.601-0.926-6.274-2.606c-3.446-3.457-3.436-9.074,0.022-12.521
		c1.672-1.665,3.892-2.582,6.251-2.582c2.371,0,4.599,0.925,6.272,2.605c1.67,1.676,2.587,3.901,2.582,6.266
		c-0.004,2.366-0.93,4.588-2.605,6.258C177.335,187.476,175.115,188.393,172.757,188.393z"/>
	<path d="M172.756,173.683c1.502,0,3.004,0.574,4.147,1.723c2.282,2.291,2.276,5.998-0.016,8.28
		c-1.142,1.139-2.637,1.707-4.131,1.707c-1.503,0-3.005-0.574-4.149-1.724c-2.282-2.29-2.274-5.997,0.016-8.279
		C169.766,174.252,171.261,173.683,172.756,173.683 M172.756,167.683L172.756,167.683c-3.158,0-6.13,1.228-8.367,3.456
		c-2.243,2.236-3.481,5.21-3.488,8.376c-0.006,3.167,1.222,6.146,3.457,8.39c2.24,2.249,5.224,3.488,8.399,3.488
		c3.158,0,6.129-1.228,8.366-3.457c2.243-2.233,3.482-5.209,3.488-8.376c0.005-3.166-1.223-6.146-3.457-8.389
		C178.913,168.921,175.931,167.683,172.756,167.683L172.756,167.683z"/>
</g>
<g>
	<path fill="#FFFFFF" d="M91.669,155.256c-2.371,0-4.6-0.925-6.273-2.604c-3.447-3.463-3.436-9.08,0.024-12.523
		c1.67-1.665,3.891-2.583,6.249-2.583c2.371,0,4.599,0.926,6.271,2.605c1.67,1.676,2.587,3.902,2.583,6.268
		c-0.005,2.365-0.93,4.588-2.606,6.257C96.246,154.339,94.027,155.256,91.669,155.256z"/>
	<path d="M91.669,140.545c1.502,0,3.003,0.575,4.146,1.723c2.283,2.292,2.276,5.999-0.016,8.282
		c-1.142,1.138-2.637,1.706-4.131,1.706c-1.502,0-3.005-0.574-4.149-1.723c-2.281-2.292-2.275-5.998,0.017-8.279
		C88.68,141.114,90.175,140.546,91.669,140.545 M91.67,134.545L91.67,134.545c-3.159,0.001-6.132,1.229-8.369,3.459
		c-2.242,2.231-3.482,5.207-3.488,8.374c-0.006,3.165,1.221,6.145,3.454,8.388c2.245,2.252,5.229,3.49,8.402,3.49
		c3.158,0,6.129-1.228,8.365-3.455c2.244-2.235,3.483-5.211,3.489-8.378c0.006-3.166-1.222-6.146-3.457-8.39
		C97.826,135.784,94.844,134.545,91.67,134.545L91.67,134.545z"/>
</g>
<g>
	<path fill="#FFFFFF" d="M197.254,139.531c-2.371,0-4.6-0.926-6.273-2.606c-3.445-3.458-3.435-9.075,0.022-12.521
		c1.673-1.666,3.893-2.583,6.252-2.583c2.372,0,4.6,0.926,6.272,2.605c3.445,3.46,3.435,9.078-0.024,12.523
		C201.832,138.614,199.612,139.531,197.254,139.531z"/>
	<path d="M197.255,124.82c1.502,0,3.003,0.574,4.146,1.723c2.282,2.291,2.275,5.999-0.016,8.281
		c-1.143,1.139-2.637,1.707-4.132,1.707c-1.502,0-3.004-0.574-4.148-1.724c-2.282-2.291-2.274-5.997,0.016-8.279
		C194.264,125.39,195.76,124.82,197.255,124.82 M197.255,118.82L197.255,118.82c-3.159,0.001-6.131,1.229-8.368,3.457
		c-4.63,4.614-4.645,12.135-0.032,16.765c2.241,2.25,5.225,3.489,8.399,3.489c3.158,0,6.129-1.228,8.366-3.456
		c2.243-2.235,3.482-5.21,3.488-8.377s-1.222-6.146-3.456-8.39C203.413,120.06,200.431,118.82,197.255,118.82L197.255,118.82z"/>
</g>
<g>
	<path fill="#FFFFFF" d="M208.536,96.822c-2.372,0-4.601-0.926-6.274-2.606c-3.445-3.46-3.434-9.078,0.025-12.522
		c1.67-1.664,3.89-2.582,6.25-2.582c2.371,0,4.599,0.926,6.272,2.605c1.669,1.675,2.586,3.901,2.582,6.267
		c-0.005,2.366-0.931,4.588-2.606,6.258C213.115,95.905,210.896,96.822,208.536,96.822z"/>
	<path d="M208.537,82.111c1.502,0,3.003,0.574,4.146,1.723c2.283,2.291,2.276,5.999-0.016,8.281
		c-1.143,1.139-2.637,1.707-4.132,1.707c-1.502,0-3.005-0.574-4.148-1.724c-2.281-2.291-2.274-5.998,0.017-8.279
		C205.547,82.681,207.042,82.111,208.537,82.111 M208.537,76.111L208.537,76.111c-3.16,0-6.132,1.229-8.369,3.459
		c-4.629,4.609-4.645,12.13-0.032,16.762c2.241,2.251,5.225,3.49,8.4,3.49c3.159,0,6.13-1.228,8.367-3.457
		c2.243-2.233,3.482-5.209,3.488-8.376s-1.223-6.147-3.458-8.391C214.695,77.351,211.712,76.111,208.537,76.111L208.537,76.111z"/>
</g>
</svg>
