<?xml version="1.0" encoding="utf-8"?>
<!-- Generator: Adobe Illustrator 22.0.1, SVG Export Plug-In . SVG Version: 6.00 Build 0)  -->
<svg version="1.1" xmlns="http://www.w3.org/2000/svg" xmlns:xlink="http://www.w3.org/1999/xlink" x="0px" y="0px"
	 viewBox="0 0 220 220" style="enable-background:new 0 0 220 220;" xml:space="preserve">
<style type="text/css">
	.Drop_x0020_Shadow{fill:none;}
	.Outer_x0020_Glow_x0020_5_x0020_pt{fill:none;}
	.Blue_x0020_Neon{fill:none;stroke:#8AACDA;stroke-width:7;stroke-linecap:round;stroke-linejoin:round;}
	.Chrome_x0020_Highlight{fill:url(#SVGID_1_);stroke:#FFFFFF;stroke-width:0.3629;stroke-miterlimit:1;}
	.Jive_GS{fill:#FFDD00;}
	.Alyssa_GS{fill:#A6D0E4;}
	.st0{fill:#FFFFFF;}
	.st1{fill:none;stroke:#000000;stroke-width:10;stroke-miterlimit:10;}
	.st2{fill:none;}
	.st3{fill:url(#SVGID_2_);}
	.st4{fill:#00A62C;}
	.st5{fill:url(#SVGID_3_);}
	.st6{fill:url(#SVGID_4_);}
	.st7{fill:url(#SVGID_5_);}
	.st8{fill:url(#SVGID_6_);}
	.st9{fill:url(#SVGID_7_);}
	.st10{fill:url(#SVGID_8_);}
	.st11{opacity:0.7;}
	.st12{fill:url(#SVGID_9_);}
	.st13{fill:url(#SVGID_10_);}
	.st14{fill:url(#SVGID_11_);}
	.st15{fill:url(#SVGID_12_);}
	.st16{fill:#BEEB00;}
	.st17{fill:#58BF00;}
	.st18{fill:none;stroke:#252D27;stroke-width:4;stroke-miterlimit:10;}
	.st19{opacity:0.4;}
	.st20{opacity:0.75;fill:#00A62C;}
	.st21{opacity:0.5;fill:#00A62C;}
	.st22{opacity:0.7;fill:#BEEB00;}
	.st23{opacity:0.3;fill:#58BF00;}
	.st24{opacity:0.7;fill:#58BF00;}
	.st25{fill:none;stroke:#252D27;stroke-width:3;stroke-miterlimit:10;}
	.st26{opacity:0.5;fill:#BEEB00;}
	.st27{opacity:0.5;fill:#58BF00;}
	.st28{fill:#252D27;}
	.st29{fill:none;stroke:#F7FCF8;stroke-width:4;stroke-miterlimit:10;}
	.st30{fill:#F7FCF8;}
	.st31{opacity:0.4;fill:#F7FCF8;}
	.st32{opacity:0.7;fill:#00A62C;}
	.st33{opacity:0.4;fill:#BEEB00;}
	.st34{opacity:0.4;fill:#00A62C;}
	.st35{opacity:0.8;fill:#58BF00;}
	.st36{opacity:0.4;fill:#58BF00;}
	.st37{fill:url(#SVGID_13_);}
	.st38{fill:url(#SVGID_14_);}
	.st39{fill:url(#SVGID_15_);}
	.st40{fill:none;stroke:#00A62C;stroke-width:4;stroke-miterlimit:10;}
	.st41{fill:url(#SVGID_16_);}
	.st42{fill:url(#SVGID_17_);}
	.st43{fill:url(#SVGID_18_);}
	.st44{fill:url(#SVGID_19_);}
	.st45{fill:url(#SVGID_20_);}
	.st46{fill:url(#SVGID_21_);}
	.st47{fill:url(#SVGID_22_);}
	.st48{fill:url(#SVGID_23_);}
	.st49{fill:url(#SVGID_24_);}
	.st50{fill:url(#SVGID_25_);}
	.st51{fill:url(#SVGID_26_);}
	.st52{fill:url(#SVGID_27_);}
	.st53{fill:url(#SVGID_28_);}
	.st54{fill:url(#SVGID_29_);}
	.st55{fill:url(#SVGID_30_);}
	.st56{fill:url(#SVGID_31_);}
	.st57{fill:url(#SVGID_32_);}
	.st58{fill:url(#SVGID_33_);}
	.st59{fill:url(#SVGID_34_);}
	.st60{fill:url(#SVGID_35_);}
	.st61{fill:url(#SVGID_36_);}
	.st62{fill:url(#SVGID_37_);}
</style>
<linearGradient id="SVGID_1_" gradientUnits="userSpaceOnUse" x1="-1500" y1="-192" x2="-1500" y2="-193">
	<stop  offset="0" style="stop-color:#656565"/>
	<stop  offset="0.618" style="stop-color:#1B1B1B"/>
	<stop  offset="0.6292" style="stop-color:#545454"/>
	<stop  offset="0.9831" style="stop-color:#3E3E3E"/>
</linearGradient>
<g id="_x3C_Layer_x3E_">
</g>
<g id="Layer_1">
	<rect class="st0" width="220" height="220"/>
	<g>
		<circle class="st20" cx="123.125" cy="92.481" r="21.481"/>
		<circle class="st21" cx="99" cy="101.105" r="19.379"/>
		<circle class="st4" cx="111.425" cy="81.98" r="23.98"/>
		<path class="st18" d="M111.425,142.75c0-9.875,0-19.75,0-29.626c0-8.375,0-16.75,0-25.124"/>
		<path class="st18" d="M111.425,122.375L99,111.625c0-4.5,0-4.5,0-4.5"/>
		<polyline class="st18" points="111.425,113.124 123.125,103.75 123.125,98.875 		"/>
		<circle class="st18" cx="99" cy="101.105" r="4.481"/>
		<circle class="st18" cx="111.425" cy="81.98" r="4.481"/>
		<circle class="st18" cx="123.125" cy="92.481" r="4.481"/>
		<g>
			<path d="M61.562,154.942l0.038,0.552c1.026-0.469,1.83-0.703,2.413-0.703c1.026,0,1.783,0.301,2.271,0.902
				s0.731,1.542,0.731,2.821v5.453h-1.957v-5.396c0-0.607-0.107-1.082-0.322-1.425c-0.216-0.342-0.552-0.513-1.008-0.513
				s-1.158,0.222-2.108,0.665v6.669h-1.957v-9.025H61.562z"/>
			<path d="M70.055,155.979c0.685-0.792,1.634-1.188,2.851-1.188c1.216,0,2.156,0.357,2.821,1.073s1.01,1.764,1.035,3.145
				l-0.076,1.406h-5.548c0.114,1.368,0.798,2.052,2.052,2.052c0.874,0,1.799-0.158,2.774-0.475l0.399,1.652
				c-0.406,0.14-0.932,0.264-1.577,0.371c-0.646,0.107-1.179,0.161-1.597,0.161c-2.773,0-4.16-1.57-4.16-4.712
				C69.029,157.933,69.371,156.771,70.055,155.979z M72.98,156.558c-0.595,0-1.042,0.175-1.339,0.522
				c-0.298,0.349-0.466,0.929-0.504,1.738h3.516C74.653,157.312,74.096,156.558,72.98,156.558z"/>
			<path d="M79.365,155.94c0.646-0.767,1.64-1.149,2.982-1.149s2.337,0.383,2.983,1.149c0.646,0.767,0.969,1.947,0.969,3.543
				c0,1.597-0.323,2.784-0.969,3.562c-0.646,0.779-1.641,1.169-2.983,1.169s-2.337-0.39-2.982-1.169
				c-0.646-0.778-0.97-1.966-0.97-3.562C78.396,157.888,78.719,156.707,79.365,155.94z M80.895,157.299
				c-0.26,0.443-0.39,1.172-0.39,2.185c0,1.014,0.133,1.748,0.399,2.204c0.266,0.456,0.747,0.685,1.443,0.685
				s1.179-0.229,1.444-0.685s0.398-1.19,0.398-2.204c0-1.013-0.13-1.741-0.389-2.185c-0.26-0.443-0.744-0.665-1.454-0.665
				C81.639,156.634,81.154,156.855,80.895,157.299z"/>
			<path class="st19" d="M88.637,156.69v-1.748h3.42l0.038,0.912c0.405-0.228,0.935-0.446,1.587-0.655s1.257-0.345,1.814-0.408
				v1.899c-0.494,0.051-1.083,0.185-1.768,0.399c-0.684,0.216-1.229,0.437-1.634,0.665v4.503h2.774v1.71h-6.232v-1.748H90.1v-5.529
				H88.637z"/>
			<path class="st19" d="M98.555,155.979c0.685-0.792,1.634-1.188,2.851-1.188c1.216,0,2.156,0.357,2.821,1.073
				s1.01,1.764,1.035,3.145l-0.076,1.406h-5.548c0.114,1.368,0.798,2.052,2.052,2.052c0.874,0,1.799-0.158,2.774-0.475l0.399,1.652
				c-0.406,0.14-0.932,0.264-1.577,0.371c-0.646,0.107-1.179,0.161-1.597,0.161c-2.773,0-4.16-1.57-4.16-4.712
				C97.529,157.933,97.871,156.771,98.555,155.979z M101.48,156.558c-0.595,0-1.042,0.175-1.339,0.522
				c-0.298,0.349-0.466,0.929-0.504,1.738h3.516C103.153,157.312,102.596,156.558,101.48,156.558z"/>
			<path class="st19" d="M107.295,163.55l0.418-1.729c1.203,0.381,2.159,0.57,2.869,0.57c0.709,0,1.19-0.069,1.444-0.209
				c0.253-0.126,0.38-0.354,0.38-0.684s-0.114-0.563-0.343-0.703c-0.228-0.14-0.658-0.285-1.292-0.438
				c-1.254-0.304-2.128-0.643-2.622-1.017c-0.493-0.373-0.74-0.984-0.74-1.833c0-1.812,1.165-2.717,3.496-2.717
				c1,0,2.159,0.164,3.477,0.494l-0.361,1.805c-1.254-0.354-2.223-0.532-2.906-0.532c-0.685,0-1.144,0.061-1.378,0.181
				s-0.352,0.326-0.352,0.617c0,0.292,0.117,0.504,0.352,0.637s0.839,0.333,1.814,0.599s1.691,0.573,2.147,0.922
				c0.456,0.348,0.684,0.94,0.684,1.776c0,1.912-1.178,2.869-3.534,2.869C109.746,164.158,108.562,163.955,107.295,163.55z"/>
			<path class="st19" d="M117.555,155.979c0.684-0.792,1.635-1.188,2.85-1.188c1.217,0,2.158,0.357,2.822,1.073
				c0.666,0.716,1.01,1.764,1.035,3.145l-0.076,1.406h-5.547c0.113,1.368,0.797,2.052,2.051,2.052c0.875,0,1.799-0.158,2.775-0.475
				l0.398,1.652c-0.406,0.14-0.932,0.264-1.576,0.371c-0.646,0.107-1.18,0.161-1.598,0.161c-2.773,0-4.16-1.57-4.16-4.712
				C116.529,157.933,116.871,156.771,117.555,155.979z M120.48,156.558c-0.596,0-1.041,0.175-1.338,0.522
				c-0.299,0.349-0.467,0.929-0.504,1.738h3.514C122.152,157.312,121.596,156.558,120.48,156.558z"/>
			<path class="st19" d="M128.897,164.177c-2.026,0-3.04-0.963-3.04-2.888c0-1.026,0.326-1.745,0.979-2.157
				c0.652-0.411,1.555-0.617,2.708-0.617c0.544,0,1.165,0.032,1.861,0.095c0-0.76-0.107-1.279-0.322-1.558
				c-0.216-0.278-0.589-0.418-1.121-0.418s-1.153,0.063-1.862,0.19c-0.71,0.126-1.254,0.253-1.634,0.38l-0.361-1.806
				c1.33-0.405,2.628-0.607,3.896-0.607c1.267,0,2.144,0.278,2.631,0.836s0.731,1.501,0.731,2.831v3.856l0.209,1.672l-1.957,0.19
				l-0.189-0.874C130.36,163.886,129.519,164.177,128.897,164.177z M129.201,162.334c0.354,0,0.748-0.082,1.179-0.247
				s0.772-0.349,1.025-0.551v-1.33c-0.76-0.063-1.381-0.096-1.861-0.096c-1.052,0-1.577,0.394-1.577,1.179
				C127.967,161.985,128.378,162.334,129.201,162.334z"/>
			<path class="st19" d="M136.137,156.69v-1.748h3.42l0.038,0.912c0.405-0.228,0.934-0.446,1.587-0.655
				c0.651-0.209,1.257-0.345,1.814-0.408v1.899c-0.494,0.051-1.083,0.185-1.768,0.399c-0.684,0.216-1.229,0.437-1.634,0.665v4.503
				h2.774v1.71h-6.232v-1.748h1.463v-5.529H136.137z"/>
			<path class="st19" d="M152.287,155.133l-0.285,1.824c-0.836-0.229-1.647-0.342-2.433-0.342s-1.355,0.218-1.71,0.655
				c-0.354,0.437-0.531,1.137-0.531,2.1s0.151,1.7,0.455,2.213c0.305,0.514,0.881,0.77,1.729,0.77s1.678-0.113,2.489-0.342
				l0.285,1.824c-0.888,0.253-1.831,0.38-2.831,0.38c-2.825,0-4.237-1.577-4.237-4.731c0-3.153,1.406-4.73,4.218-4.73
				C150.488,154.753,151.438,154.88,152.287,155.133z"/>
			<path class="st19" d="M156.619,157.317v6.65h-1.957v-12.673h1.957v4.18c1.025-0.456,1.83-0.684,2.412-0.684
				c1.09,0,1.859,0.316,2.309,0.95c0.45,0.633,0.675,1.558,0.675,2.773v5.453h-1.957v-5.491c0-0.532-0.104-0.972-0.313-1.32
				s-0.484-0.522-0.826-0.522C158.297,156.634,157.53,156.861,156.619,157.317z"/>
		</g>
	</g>
</g>
<g id="Isolation_Mode">
</g>
</svg>
