<?xml version="1.0" encoding="utf-8"?>
<!-- Generator: Adobe Illustrator 22.1.0, SVG Export Plug-In . SVG Version: 6.00 Build 0)  -->
<svg version="1.1" id="Слой_1" xmlns="http://www.w3.org/2000/svg" xmlns:xlink="http://www.w3.org/1999/xlink" x="0px" y="0px"
	 viewBox="0 0 1200 600" style="enable-background:new 0 0 1200 600;" xml:space="preserve">
<style type="text/css">
	.st0{fill:#FFFFFF;}
	.st1{stroke:#FFFFFF;stroke-miterlimit:10;}
	.st2{fill:#FFFFFF;stroke:#000000;stroke-miterlimit:10;}
	.st3{fill:url(#SVGID_1_);}
	.st4{fill:url(#SVGID_2_);}
	.st5{fill:url(#SVGID_3_);}
	.st6{fill:#00A62C;}
	.st7{fill:url(#SVGID_4_);}
	.st8{fill:url(#SVGID_5_);}
	.st9{fill:url(#SVGID_6_);}
	.st10{fill:url(#SVGID_7_);}
	.st11{fill:url(#SVGID_8_);}
	.st12{fill:url(#SVGID_9_);}
	.st13{fill:url(#SVGID_10_);}
	.st14{fill:url(#SVGID_11_);}
	.st15{fill:url(#SVGID_12_);}
	.st16{fill:url(#SVGID_13_);}
	.st17{fill:none;stroke:#00A62C;stroke-width:3;stroke-miterlimit:10;}
	.st18{fill:url(#SVGID_14_);}
	.st19{fill:url(#SVGID_15_);}
	.st20{fill:url(#SVGID_16_);}
	.st21{fill:#C1272D;}
	.st22{fill:#29ABE2;}
</style>
<rect x="600" class="st0" width="600" height="600"/>
<rect x="0" width="600" height="600"/>
<circle class="st1" cx="300" cy="300" r="300"/>
<circle class="st2" cx="900" cy="300" r="300"/>
<g>
	<linearGradient id="SVGID_1_" gradientUnits="userSpaceOnUse" x1="1042.3287" y1="242.7624" x2="982.3082" y2="346.721">
		<stop  offset="0" style="stop-color:#BEEB00"/>
		<stop  offset="0.99" style="stop-color:#00A62C"/>
	</linearGradient>
	<path class="st3" d="M1049.6,247c-0.6-0.4-1.2-0.7-1.8-1c8.1,15.5,1.4,44.5-29.5,66.4c-17.7,12.5-42.3,17.3-63.3,18.5
		c23-1.2,49.7-5.6,68.9-16.9C1064.2,290.4,1066.9,257.6,1049.6,247z"/>
	<linearGradient id="SVGID_2_" gradientUnits="userSpaceOnUse" x1="933.6784" y1="313.6452" x2="920.6569" y2="336.199">
		<stop  offset="0" style="stop-color:#BEEB00"/>
		<stop  offset="0.99" style="stop-color:#00A62C"/>
	</linearGradient>
	<path class="st4" d="M914.5,327.6c9.8-0.6,18.6-4.2,26.7-9.6c-9.4,5.6-19.7,9.4-31.4,9.9c-8.9,0.4,7.3,3.5,31.5,3.4
		C920.3,331.2,906.6,328.1,914.5,327.6z"/>
</g>
<linearGradient id="SVGID_3_" gradientUnits="userSpaceOnUse" x1="946.5444" y1="394.9974" x2="946.5444" y2="326.2264">
	<stop  offset="0" style="stop-color:#BEEB00"/>
	<stop  offset="1" style="stop-color:#00A62C"/>
</linearGradient>
<path class="st5" d="M970.5,345.6c-22.7-21.4-72.3-20.4-62.2-18.3c37,7.5,39.8,81.8,70.2,65.4C989.1,386.9,990.7,364.7,970.5,345.6z
	 M961.8,367.5c-18.2,11.1-22.4-34.6-45.5-38c-6.3-0.9,24.3-3.2,39,9.2C968.4,349.8,968.1,363.6,961.8,367.5z"/>
<circle class="st6" cx="907.1" cy="327" r="8.5"/>
<g>
	<linearGradient id="SVGID_4_" gradientUnits="userSpaceOnUse" x1="771.8316" y1="242.7624" x2="831.8521" y2="346.721">
		<stop  offset="0" style="stop-color:#BEEB00"/>
		<stop  offset="0.99" style="stop-color:#00A62C"/>
	</linearGradient>
	<path class="st7" d="M795.9,312.4c-30.9-21.9-37.6-50.9-29.5-66.4c-0.6,0.3-1.2,0.7-1.8,1c-17.3,10.6-14.5,43.4,25.8,67.1
		c19.2,11.3,45.9,15.6,68.9,16.9C838.1,329.6,813.5,324.9,795.9,312.4z"/>
	<linearGradient id="SVGID_5_" gradientUnits="userSpaceOnUse" x1="880.482" y1="313.6452" x2="893.5034" y2="336.199">
		<stop  offset="0" style="stop-color:#BEEB00"/>
		<stop  offset="0.99" style="stop-color:#00A62C"/>
	</linearGradient>
	<path class="st8" d="M904.3,327.9c-11.6-0.6-22-4.3-31.4-9.9c8,5.4,16.8,9,26.7,9.6c7.9,0.5-5.8,3.6-26.8,3.7
		C897,331.4,913.3,328.4,904.3,327.9z"/>
</g>
<rect x="909.3" y="303" transform="matrix(0.966 0.2587 -0.2587 0.966 112.6669 -224.7201)" class="st6" width="2.1" height="25.5"/>
<rect x="916.4" y="296.8" transform="matrix(-0.5001 -0.8659 0.8659 -0.5001 1115.0059 1247.1357)" class="st6" width="2.1" height="9.9"/>
<rect x="898.9" y="303.9" transform="matrix(-0.8882 0.4595 -0.4595 -0.8882 1842.689 176.1532)" class="st6" width="2.1" height="16.9"/>
<circle class="st6" cx="907.1" cy="327" r="8.4"/>
<linearGradient id="SVGID_6_" gradientUnits="userSpaceOnUse" x1="867.616" y1="394.9977" x2="867.616" y2="326.2264">
	<stop  offset="0" style="stop-color:#B8E901"/>
	<stop  offset="1" style="stop-color:#00A62C"/>
</linearGradient>
<path class="st9" d="M843.7,345.6c-20.2,19.1-18.6,41.3-8,47.1c28.3,15.2,32.7-47.7,62.8-62.8c-0.1,0-0.1,0-0.2,0
	c-23.1,3-28.1,48.7-46.1,37.2c-6.3-4-6.3-17.8,7-28.7c13.3-10.9,39-9.8,39.9-8.9c2.2-1,4.4-1.8,6.9-2.3
	C916,325.2,866.4,324.1,843.7,345.6z"/>
<linearGradient id="SVGID_7_" gradientUnits="userSpaceOnUse" x1="136.0144" y1="227.9028" x2="207.2764" y2="351.3323" gradientTransform="matrix(-1 0 0 1 1154.4645 0)">
	<stop  offset="0" style="stop-color:#BEEB00"/>
	<stop  offset="0.61" style="stop-color:#29B800"/>
	<stop  offset="0.78" style="stop-color:#00AE1D"/>
	<stop  offset="0.99" style="stop-color:#00A62C"/>
</linearGradient>
<path class="st10" d="M909.5,327.6c-16.6,1,62.6,14,103.8-15.2c36.7-26,39.2-62,23.5-73.6C991.8,205.6,970.5,324,909.5,327.6z"/>
<linearGradient id="SVGID_8_" gradientUnits="userSpaceOnUse" x1="795.7103" y1="227.9028" x2="866.9724" y2="351.3323">
	<stop  offset="0" style="stop-color:#BEEB00"/>
	<stop  offset="0.61" style="stop-color:#29B800"/>
	<stop  offset="0.78" style="stop-color:#00AE1D"/>
	<stop  offset="0.99" style="stop-color:#00A62C"/>
</linearGradient>
<path class="st11" d="M904.7,327.6c16.6,1-62.6,14-103.8-15.2c-36.7-26-39.2-62-23.5-73.6C822.4,205.6,843.7,324,904.7,327.6z"/>
<path class="st6" d="M912.1,329c-6.3-0.5,24-4.7,39.5,6.8c13.8,10.3,14.4,24,8.3,28.3C942.4,376.4,935.4,331,912.1,329z"/>
<path class="st6" d="M902,329c6.3-0.5-24-4.7-39.5,6.8c-13.8,10.3-14.4,24-8.3,28.3C871.8,376.4,878.8,331,902,329z"/>
<g>
	<linearGradient id="SVGID_9_" gradientUnits="userSpaceOnUse" x1="428.092" y1="242.7624" x2="368.0714" y2="346.721">
		<stop  offset="0" style="stop-color:#BEEB00"/>
		<stop  offset="0.99" style="stop-color:#00A62C"/>
	</linearGradient>
	<path class="st12" d="M435.4,247c-0.6-0.4-1.2-0.7-1.8-1c8.1,15.5,1.4,44.5-29.5,66.4c-17.7,12.5-42.3,17.3-63.3,18.5
		c23-1.2,49.7-5.6,68.9-16.9C449.9,290.4,452.7,257.6,435.4,247z"/>
	<linearGradient id="SVGID_10_" gradientUnits="userSpaceOnUse" x1="319.4416" y1="313.6452" x2="306.4202" y2="336.199">
		<stop  offset="0" style="stop-color:#BEEB00"/>
		<stop  offset="0.99" style="stop-color:#00A62C"/>
	</linearGradient>
	<path class="st13" d="M300.3,327.6c9.8-0.6,18.6-4.2,26.7-9.6c-9.4,5.6-19.7,9.4-31.4,9.9c-8.9,0.4,7.3,3.5,31.5,3.4
		C306.1,331.2,292.4,328.1,300.3,327.6z"/>
</g>
<linearGradient id="SVGID_11_" gradientUnits="userSpaceOnUse" x1="332.3076" y1="394.9974" x2="332.3076" y2="326.2264">
	<stop  offset="0" style="stop-color:#BEEB00"/>
	<stop  offset="1" style="stop-color:#00A62C"/>
</linearGradient>
<path class="st14" d="M356.2,345.6c-22.7-21.4-72.3-20.4-62.2-18.3c37,7.5,39.8,81.8,70.2,65.4C374.9,386.9,376.4,364.7,356.2,345.6
	z M347.5,367.5c-18.2,11.1-22.4-34.6-45.5-38c-6.3-0.9,24.3-3.2,39,9.2C354.2,349.8,353.9,363.6,347.5,367.5z"/>
<circle class="st6" cx="292.8" cy="327" r="8.5"/>
<g>
	<linearGradient id="SVGID_12_" gradientUnits="userSpaceOnUse" x1="157.5948" y1="242.7624" x2="217.6154" y2="346.721">
		<stop  offset="0" style="stop-color:#BEEB00"/>
		<stop  offset="0.99" style="stop-color:#00A62C"/>
	</linearGradient>
	<path class="st15" d="M181.6,312.4c-30.9-21.9-37.6-50.9-29.5-66.4c-0.6,0.3-1.2,0.7-1.8,1c-17.3,10.6-14.5,43.4,25.8,67.1
		c19.2,11.3,45.9,15.6,68.9,16.9C223.9,329.6,199.3,324.9,181.6,312.4z"/>
	<linearGradient id="SVGID_13_" gradientUnits="userSpaceOnUse" x1="266.2452" y1="313.6452" x2="279.2666" y2="336.199">
		<stop  offset="0" style="stop-color:#BEEB00"/>
		<stop  offset="0.99" style="stop-color:#00A62C"/>
	</linearGradient>
	<path class="st16" d="M290.1,327.9c-11.6-0.6-22-4.3-31.4-9.9c8,5.4,16.8,9,26.7,9.6c7.9,0.5-5.8,3.6-26.8,3.7
		C282.8,331.4,299,328.4,290.1,327.9z"/>
</g>
<rect x="295.1" y="303" transform="matrix(0.966 0.2587 -0.2587 0.966 91.7641 -65.8442)" class="st6" width="2.1" height="25.5"/>
<rect x="302.2" y="296.8" transform="matrix(-0.5001 -0.8659 0.8659 -0.5001 193.5607 715.2431)" class="st6" width="2.1" height="9.9"/>
<rect x="284.6" y="303.9" transform="matrix(-0.8882 0.4595 -0.4595 -0.8882 682.9067 458.4064)" class="st6" width="2.1" height="16.9"/>
<circle class="st6" cx="276.2" cy="293.9" r="13.7"/>
<circle class="st17" cx="312.8" cy="296" r="6.9"/>
<circle class="st6" cx="292.8" cy="326.7" r="8.4"/>
<linearGradient id="SVGID_14_" gradientUnits="userSpaceOnUse" x1="253.3792" y1="394.9977" x2="253.3792" y2="326.2264">
	<stop  offset="0" style="stop-color:#B8E901"/>
	<stop  offset="1" style="stop-color:#00A62C"/>
</linearGradient>
<path class="st18" d="M229.5,345.6c-20.2,19.1-18.6,41.3-8,47.1c28.3,15.2,32.7-47.7,62.8-62.8c-0.1,0-0.1,0-0.2,0
	c-23.1,3-28.1,48.7-46.1,37.2c-6.3-4-6.3-17.8,7-28.7c13.3-10.9,39-9.8,39.9-8.9c2.2-1,4.4-1.8,6.9-2.3
	C301.8,325.2,252.2,324.1,229.5,345.6z"/>
<linearGradient id="SVGID_15_" gradientUnits="userSpaceOnUse" x1="750.2512" y1="227.9028" x2="821.5132" y2="351.3323" gradientTransform="matrix(-1 0 0 1 1154.4645 0)">
	<stop  offset="0" style="stop-color:#BEEB00"/>
	<stop  offset="0.61" style="stop-color:#29B800"/>
	<stop  offset="0.78" style="stop-color:#00AE1D"/>
	<stop  offset="0.99" style="stop-color:#00A62C"/>
</linearGradient>
<path class="st19" d="M295.3,327.6c-16.6,1,62.6,14,103.8-15.2c36.7-26,39.2-62,23.5-73.6C377.6,205.6,356.3,324,295.3,327.6z"/>
<linearGradient id="SVGID_16_" gradientUnits="userSpaceOnUse" x1="181.4735" y1="227.9028" x2="252.7356" y2="351.3323">
	<stop  offset="0" style="stop-color:#BEEB00"/>
	<stop  offset="0.61" style="stop-color:#29B800"/>
	<stop  offset="0.78" style="stop-color:#00AE1D"/>
	<stop  offset="0.99" style="stop-color:#00A62C"/>
</linearGradient>
<path class="st20" d="M290.4,327.6c16.6,1-62.6,14-103.8-15.2c-36.7-26-39.2-62-23.5-73.6C208.1,205.6,229.4,324,290.4,327.6z"/>
<path class="st6" d="M297.9,329c-6.3-0.5,24-4.7,39.5,6.8c13.8,10.3,14.4,24,8.3,28.3C328.1,376.4,321.1,331,297.9,329z"/>
<path class="st6" d="M287.8,329c6.3-0.5-24-4.7-39.5,6.8c-13.8,10.3-14.4,24-8.3,28.3C257.6,376.4,264.5,331,287.8,329z"/>
<circle class="st21" cx="252.8" cy="254.1" r="5.2"/>
<circle class="st22" cx="301.1" cy="252.4" r="13.7"/>
<circle class="st6" cx="266.6" cy="218.1" r="8.4"/>
<circle class="st0" cx="335.3" cy="234.2" r="5.2"/>
<circle class="st6" cx="276.2" cy="293.7" r="13.7"/>
<g>
	<path d="M695.9,422.9c0.2,0.1,0.3,0.2,0.5,0.5l28.4,38c-0.1-0.6-0.1-1.2-0.1-1.8v-36.8h2.8v43.9H726c-0.3,0-0.5,0-0.7-0.1
		c-0.2-0.1-0.3-0.3-0.5-0.5l-28.5-38c0.1,0.6,0.1,1.2,0.1,1.7v36.9h-2.8v-43.9h1.6C695.5,422.8,695.7,422.9,695.9,422.9z"/>
	<path d="M766.7,422.8v2.6h-23.1v17.7h19.2v2.6h-19.2v18.3h23.2l-0.1,2.6h-26.3v-43.9H766.7z"/>
	<path d="M814.4,444.7c0,3.4-0.5,6.5-1.5,9.2c-1,2.8-2.4,5.1-4.3,7.1c-1.8,2-4,3.5-6.6,4.5c-2.6,1.1-5.4,1.6-8.5,1.6
		s-5.9-0.5-8.5-1.6s-4.8-2.6-6.6-4.5c-1.8-2-3.3-4.3-4.3-7.1c-1-2.8-1.5-5.8-1.5-9.2c0-3.4,0.5-6.4,1.5-9.2c1-2.8,2.4-5.1,4.3-7.1
		s4-3.5,6.6-4.5c2.6-1.1,5.4-1.6,8.5-1.6s5.9,0.5,8.5,1.6c2.6,1.1,4.8,2.6,6.6,4.5c1.8,2,3.3,4.3,4.3,7.1
		C813.9,438.3,814.4,441.4,814.4,444.7z M811.1,444.7c0-3.1-0.4-5.8-1.3-8.2c-0.8-2.4-2-4.5-3.6-6.2c-1.5-1.7-3.4-3-5.6-3.9
		s-4.6-1.3-7.2-1.3c-2.6,0-5,0.4-7.2,1.3s-4,2.2-5.6,3.9c-1.6,1.7-2.8,3.8-3.6,6.2c-0.9,2.4-1.3,5.2-1.3,8.2c0,3.1,0.4,5.8,1.3,8.3
		c0.9,2.4,2.1,4.5,3.6,6.2c1.6,1.7,3.4,3,5.6,3.9c2.2,0.9,4.6,1.3,7.2,1.3c2.6,0,5-0.4,7.2-1.3c2.2-0.9,4-2.2,5.6-3.9
		c1.5-1.7,2.7-3.8,3.6-6.2C810.6,450.6,811.1,447.8,811.1,444.7z"/>
	<path d="M827.7,446.8v19.8h-3.2v-43.9h11.2c5,0,8.8,1,11.3,2.9c2.5,2,3.8,4.8,3.8,8.6c0,1.7-0.3,3.2-0.9,4.6
		c-0.6,1.4-1.4,2.6-2.5,3.6c-1.1,1-2.4,1.9-3.9,2.6s-3.3,1.1-5.2,1.3c0.5,0.3,0.9,0.7,1.3,1.2l15.1,19H852c-0.4,0-0.6-0.1-0.9-0.2
		c-0.2-0.1-0.5-0.3-0.7-0.6l-14.1-17.8c-0.2-0.2-0.3-0.4-0.5-0.6c-0.2-0.2-0.4-0.3-0.6-0.4c-0.2-0.1-0.5-0.2-0.8-0.2
		c-0.3,0-0.7-0.1-1.1-0.1H827.7z M827.7,444.5h7.6c1.9,0,3.7-0.2,5.2-0.7c1.5-0.5,2.8-1.1,3.9-2c1.1-0.9,1.9-1.9,2.4-3.1
		c0.6-1.2,0.8-2.6,0.8-4.1c0-3.1-1-5.4-3.1-6.9c-2-1.5-5-2.3-8.9-2.3h-8V444.5z"/>
	<path d="M888.4,422.8v2.6h-23.1v17.7h19.2v2.6h-19.2v18.3h23.2l-0.1,2.6h-26.3v-43.9H888.4z"/>
	<path d="M919.4,428.2c-0.2,0.4-0.5,0.5-0.8,0.5c-0.3,0-0.6-0.2-1-0.6c-0.4-0.4-1-0.8-1.7-1.3c-0.7-0.5-1.6-0.9-2.7-1.3
		c-1.1-0.4-2.4-0.6-4-0.6s-3,0.2-4.2,0.7s-2.2,1.1-3,1.9c-0.8,0.8-1.4,1.7-1.9,2.7c-0.4,1-0.6,2.1-0.6,3.3c0,1.5,0.3,2.7,0.9,3.7
		c0.6,1,1.5,1.8,2.5,2.5c1,0.7,2.2,1.3,3.5,1.7c1.3,0.5,2.7,0.9,4,1.4c1.4,0.5,2.7,1,4,1.5c1.3,0.5,2.5,1.2,3.5,2.1
		c1,0.8,1.9,1.8,2.5,3.1s0.9,2.7,0.9,4.5c0,1.8-0.3,3.6-0.9,5.2s-1.5,3-2.7,4.2c-1.2,1.2-2.7,2.1-4.4,2.8s-3.7,1-6,1
		c-2.9,0-5.4-0.5-7.5-1.5c-2.1-1-3.9-2.4-5.5-4.2l0.9-1.4c0.2-0.3,0.5-0.5,0.9-0.5c0.2,0,0.4,0.1,0.7,0.4c0.3,0.2,0.6,0.6,1.1,0.9
		c0.4,0.4,0.9,0.8,1.5,1.2c0.6,0.4,1.2,0.8,2,1.2c0.8,0.4,1.6,0.7,2.6,0.9c1,0.2,2.1,0.4,3.4,0.4c1.7,0,3.3-0.3,4.7-0.8
		c1.4-0.5,2.5-1.2,3.5-2.2c0.9-0.9,1.7-2,2.2-3.2c0.5-1.2,0.7-2.6,0.7-4c0-1.6-0.3-2.8-0.9-3.8c-0.6-1-1.5-1.8-2.5-2.5
		c-1-0.7-2.2-1.2-3.5-1.7c-1.3-0.5-2.7-0.9-4-1.3c-1.4-0.4-2.7-0.9-4-1.5c-1.3-0.5-2.5-1.2-3.5-2.1c-1-0.8-1.9-1.9-2.5-3.1
		c-0.6-1.2-0.9-2.8-0.9-4.7c0-1.5,0.3-2.9,0.8-4.2c0.6-1.4,1.4-2.6,2.4-3.6c1.1-1,2.4-1.9,4-2.5c1.6-0.6,3.4-0.9,5.4-0.9
		c2.3,0,4.3,0.4,6.1,1.1c1.8,0.7,3.5,1.8,4.9,3.3L919.4,428.2z"/>
	<path d="M957.5,422.8v2.6h-23.1v17.7h19.2v2.6h-19.2v18.3h23.2l-0.1,2.6h-26.3v-43.9H957.5z"/>
	<path d="M1000.5,466.7h-2.4c-0.3,0-0.5-0.1-0.7-0.2c-0.2-0.2-0.3-0.4-0.4-0.6l-5.1-12.7h-21.5l-5.1,12.7c-0.1,0.2-0.2,0.4-0.4,0.6
		c-0.2,0.2-0.5,0.2-0.7,0.2h-2.4l17.9-43.9h3.1L1000.5,466.7z M971.2,450.8h19.7l-8.9-22.2c-0.3-0.7-0.6-1.6-0.9-2.6
		c-0.1,0.5-0.3,1-0.4,1.4c-0.1,0.5-0.3,0.9-0.4,1.2L971.2,450.8z"/>
	<path d="M1011,446.8v19.8h-3.2v-43.9h11.2c5,0,8.8,1,11.3,2.9c2.5,2,3.8,4.8,3.8,8.6c0,1.7-0.3,3.2-0.9,4.6
		c-0.6,1.4-1.4,2.6-2.5,3.6c-1.1,1-2.4,1.9-3.9,2.6s-3.3,1.1-5.2,1.3c0.5,0.3,0.9,0.7,1.3,1.2l15.1,19h-2.7c-0.4,0-0.6-0.1-0.9-0.2
		c-0.2-0.1-0.5-0.3-0.7-0.6l-14.1-17.8c-0.2-0.2-0.3-0.4-0.5-0.6c-0.2-0.2-0.4-0.3-0.6-0.4c-0.2-0.1-0.5-0.2-0.8-0.2
		c-0.3,0-0.7-0.1-1.1-0.1H1011z M1011,444.5h7.6c1.9,0,3.7-0.2,5.2-0.7c1.5-0.5,2.8-1.1,3.9-2c1.1-0.9,1.9-1.9,2.4-3.1
		c0.6-1.2,0.8-2.6,0.8-4.1c0-3.1-1-5.4-3.1-6.9c-2-1.5-5-2.3-8.9-2.3h-8V444.5z"/>
	<path d="M1076.7,459.3c0.2,0,0.4,0.1,0.5,0.2l1.2,1.3c-0.9,1-1.9,1.8-3,2.6c-1.1,0.8-2.2,1.4-3.5,2c-1.3,0.5-2.7,1-4.2,1.3
		s-3.2,0.4-5,0.4c-3,0-5.8-0.5-8.4-1.6c-2.5-1.1-4.7-2.6-6.5-4.5c-1.8-2-3.2-4.3-4.2-7.1c-1-2.8-1.5-5.8-1.5-9.2
		c0-3.3,0.5-6.4,1.5-9.1c1-2.7,2.5-5.1,4.3-7.1c1.9-2,4.1-3.5,6.7-4.6s5.5-1.6,8.6-1.6c3,0,5.7,0.5,8,1.4c2.3,0.9,4.4,2.2,6.3,3.9
		l-1,1.4c-0.2,0.2-0.4,0.4-0.8,0.4c-0.2,0-0.7-0.2-1.2-0.7c-0.6-0.5-1.3-1-2.3-1.5s-2.2-1-3.7-1.5c-1.5-0.5-3.2-0.7-5.3-0.7
		c-2.6,0-5.1,0.5-7.3,1.4c-2.2,0.9-4.1,2.2-5.7,3.9c-1.6,1.7-2.8,3.8-3.7,6.2c-0.9,2.4-1.3,5.2-1.3,8.2c0,3.1,0.4,5.9,1.3,8.3
		c0.9,2.4,2.1,4.5,3.7,6.2c1.6,1.7,3.4,3,5.6,3.9c2.1,0.9,4.4,1.3,6.9,1.3c1.6,0,3-0.1,4.2-0.3c1.2-0.2,2.4-0.5,3.4-0.9
		c1-0.4,2-0.9,2.9-1.5c0.9-0.6,1.8-1.3,2.6-2.1c0.1-0.1,0.2-0.1,0.3-0.2S1076.6,459.3,1076.7,459.3z"/>
	<path d="M1120.9,466.7h-3.2v-21h-27.5v21h-3.2v-43.9h3.2v20.5h27.5v-20.5h3.2V466.7z"/>
</g>
<g>
	<path class="st0" d="M81.2,422.9c0.2,0.1,0.3,0.2,0.5,0.5l28.4,38c-0.1-0.6-0.1-1.2-0.1-1.8v-36.8h2.8v43.9h-1.5
		c-0.3,0-0.5,0-0.7-0.1c-0.2-0.1-0.3-0.3-0.5-0.5l-28.5-38c0.1,0.6,0.1,1.2,0.1,1.7v36.9H79v-43.9h1.6
		C80.8,422.8,81.1,422.9,81.2,422.9z"/>
	<path class="st0" d="M152.1,422.8v2.6H129v17.7h19.2v2.6H129v18.3h23.2l-0.1,2.6h-26.3v-43.9H152.1z"/>
	<path class="st0" d="M199.7,444.7c0,3.4-0.5,6.5-1.5,9.2c-1,2.8-2.4,5.1-4.3,7.1c-1.8,2-4,3.5-6.6,4.5c-2.6,1.1-5.4,1.6-8.5,1.6
		s-5.9-0.5-8.5-1.6s-4.8-2.6-6.6-4.5c-1.8-2-3.3-4.3-4.3-7.1c-1-2.8-1.5-5.8-1.5-9.2c0-3.4,0.5-6.4,1.5-9.2c1-2.8,2.4-5.1,4.3-7.1
		s4-3.5,6.6-4.5c2.6-1.1,5.4-1.6,8.5-1.6s5.9,0.5,8.5,1.6c2.6,1.1,4.8,2.6,6.6,4.5c1.8,2,3.3,4.3,4.3,7.1
		C199.2,438.3,199.7,441.4,199.7,444.7z M196.4,444.7c0-3.1-0.4-5.8-1.3-8.2c-0.8-2.4-2-4.5-3.6-6.2c-1.5-1.7-3.4-3-5.6-3.9
		s-4.6-1.3-7.2-1.3c-2.6,0-5,0.4-7.2,1.3s-4,2.2-5.6,3.9c-1.6,1.7-2.8,3.8-3.6,6.2c-0.9,2.4-1.3,5.2-1.3,8.2c0,3.1,0.4,5.8,1.3,8.3
		c0.9,2.4,2.1,4.5,3.6,6.2c1.6,1.7,3.4,3,5.6,3.9c2.2,0.9,4.6,1.3,7.2,1.3c2.6,0,5-0.4,7.2-1.3c2.2-0.9,4-2.2,5.6-3.9
		c1.5-1.7,2.7-3.8,3.6-6.2C196,450.6,196.4,447.8,196.4,444.7z"/>
	<path class="st0" d="M213,446.8v19.8h-3.2v-43.9H221c5,0,8.8,1,11.3,2.9c2.5,2,3.8,4.8,3.8,8.6c0,1.7-0.3,3.2-0.9,4.6
		c-0.6,1.4-1.4,2.6-2.5,3.6c-1.1,1-2.4,1.9-3.9,2.6s-3.3,1.1-5.2,1.3c0.5,0.3,0.9,0.7,1.3,1.2l15.1,19h-2.7c-0.4,0-0.6-0.1-0.9-0.2
		c-0.2-0.1-0.5-0.3-0.7-0.6l-14.1-17.8c-0.2-0.2-0.3-0.4-0.5-0.6c-0.2-0.2-0.4-0.3-0.6-0.4c-0.2-0.1-0.5-0.2-0.8-0.2
		c-0.3,0-0.7-0.1-1.1-0.1H213z M213,444.5h7.6c1.9,0,3.7-0.2,5.2-0.7c1.5-0.5,2.8-1.1,3.9-2c1.1-0.9,1.9-1.9,2.4-3.1
		c0.6-1.2,0.8-2.6,0.8-4.1c0-3.1-1-5.4-3.1-6.9c-2-1.5-5-2.3-8.9-2.3h-8V444.5z"/>
	<path class="st0" d="M273.7,422.8v2.6h-23.1v17.7h19.2v2.6h-19.2v18.3h23.2l-0.1,2.6h-26.3v-43.9H273.7z"/>
	<path class="st0" d="M304.7,428.2c-0.2,0.4-0.5,0.5-0.8,0.5c-0.3,0-0.6-0.2-1-0.6c-0.4-0.4-1-0.8-1.7-1.3c-0.7-0.5-1.6-0.9-2.7-1.3
		c-1.1-0.4-2.4-0.6-4-0.6s-3,0.2-4.2,0.7s-2.2,1.1-3,1.9c-0.8,0.8-1.4,1.7-1.9,2.7c-0.4,1-0.6,2.1-0.6,3.3c0,1.5,0.3,2.7,0.9,3.7
		c0.6,1,1.5,1.8,2.5,2.5c1,0.7,2.2,1.3,3.5,1.7c1.3,0.5,2.7,0.9,4,1.4c1.4,0.5,2.7,1,4,1.5c1.3,0.5,2.5,1.2,3.5,2.1
		c1,0.8,1.9,1.8,2.5,3.1s0.9,2.7,0.9,4.5c0,1.8-0.3,3.6-0.9,5.2s-1.5,3-2.7,4.2c-1.2,1.2-2.7,2.1-4.4,2.8s-3.7,1-6,1
		c-2.9,0-5.4-0.5-7.5-1.5c-2.1-1-3.9-2.4-5.5-4.2l0.9-1.4c0.2-0.3,0.5-0.5,0.9-0.5c0.2,0,0.4,0.1,0.7,0.4c0.3,0.2,0.6,0.6,1.1,0.9
		c0.4,0.4,0.9,0.8,1.5,1.2c0.6,0.4,1.2,0.8,2,1.2c0.8,0.4,1.6,0.7,2.6,0.9c1,0.2,2.1,0.4,3.4,0.4c1.7,0,3.3-0.3,4.7-0.8
		c1.4-0.5,2.5-1.2,3.5-2.2c0.9-0.9,1.7-2,2.2-3.2c0.5-1.2,0.7-2.6,0.7-4c0-1.6-0.3-2.8-0.9-3.8c-0.6-1-1.5-1.8-2.5-2.5
		c-1-0.7-2.2-1.2-3.5-1.7c-1.3-0.5-2.7-0.9-4-1.3c-1.4-0.4-2.7-0.9-4-1.5c-1.3-0.5-2.5-1.2-3.5-2.1c-1-0.8-1.9-1.9-2.5-3.1
		c-0.6-1.2-0.9-2.8-0.9-4.7c0-1.5,0.3-2.9,0.8-4.2c0.6-1.4,1.4-2.6,2.4-3.6c1.1-1,2.4-1.9,4-2.5c1.6-0.6,3.4-0.9,5.4-0.9
		c2.3,0,4.3,0.4,6.1,1.1c1.8,0.7,3.5,1.8,4.9,3.3L304.7,428.2z"/>
	<path class="st0" d="M342.9,422.8v2.6h-23.1v17.7H339v2.6h-19.2v18.3h23.2l-0.1,2.6h-26.3v-43.9H342.9z"/>
	<path class="st0" d="M385.9,466.7h-2.4c-0.3,0-0.5-0.1-0.7-0.2c-0.2-0.2-0.3-0.4-0.4-0.6l-5.1-12.7h-21.5l-5.1,12.7
		c-0.1,0.2-0.2,0.4-0.4,0.6c-0.2,0.2-0.5,0.2-0.7,0.2h-2.4l17.9-43.9h3.1L385.9,466.7z M356.5,450.8h19.7l-8.9-22.2
		c-0.3-0.7-0.6-1.6-0.9-2.6c-0.1,0.5-0.3,1-0.4,1.4c-0.1,0.5-0.3,0.9-0.4,1.2L356.5,450.8z"/>
	<path class="st0" d="M396.4,446.8v19.8h-3.2v-43.9h11.2c5,0,8.8,1,11.3,2.9c2.5,2,3.8,4.8,3.8,8.6c0,1.7-0.3,3.2-0.9,4.6
		c-0.6,1.4-1.4,2.6-2.5,3.6c-1.1,1-2.4,1.9-3.9,2.6s-3.3,1.1-5.2,1.3c0.5,0.3,0.9,0.7,1.3,1.2l15.1,19h-2.7c-0.4,0-0.6-0.1-0.9-0.2
		c-0.2-0.1-0.5-0.3-0.7-0.6l-14.1-17.8c-0.2-0.2-0.3-0.4-0.5-0.6c-0.2-0.2-0.4-0.3-0.6-0.4c-0.2-0.1-0.5-0.2-0.8-0.2
		c-0.3,0-0.7-0.1-1.1-0.1H396.4z M396.4,444.5h7.6c1.9,0,3.7-0.2,5.2-0.7c1.5-0.5,2.8-1.1,3.9-2c1.1-0.9,1.9-1.9,2.4-3.1
		c0.6-1.2,0.8-2.6,0.8-4.1c0-3.1-1-5.4-3.1-6.9c-2-1.5-5-2.3-8.9-2.3h-8V444.5z"/>
	<path class="st0" d="M462.1,459.3c0.2,0,0.4,0.1,0.5,0.2l1.2,1.3c-0.9,1-1.9,1.8-3,2.6c-1.1,0.8-2.2,1.4-3.5,2
		c-1.3,0.5-2.7,1-4.2,1.3s-3.2,0.4-5,0.4c-3,0-5.8-0.5-8.4-1.6c-2.5-1.1-4.7-2.6-6.5-4.5c-1.8-2-3.2-4.3-4.2-7.1
		c-1-2.8-1.5-5.8-1.5-9.2c0-3.3,0.5-6.4,1.5-9.1c1-2.7,2.5-5.1,4.3-7.1c1.9-2,4.1-3.5,6.7-4.6s5.5-1.6,8.6-1.6c3,0,5.7,0.5,8,1.4
		c2.3,0.9,4.4,2.2,6.3,3.9l-1,1.4c-0.2,0.2-0.4,0.4-0.8,0.4c-0.2,0-0.7-0.2-1.2-0.7c-0.6-0.5-1.3-1-2.3-1.5s-2.2-1-3.7-1.5
		c-1.5-0.5-3.2-0.7-5.3-0.7c-2.6,0-5.1,0.5-7.3,1.4c-2.2,0.9-4.1,2.2-5.7,3.9c-1.6,1.7-2.8,3.8-3.7,6.2c-0.9,2.4-1.3,5.2-1.3,8.2
		c0,3.1,0.4,5.9,1.3,8.3c0.9,2.4,2.1,4.5,3.7,6.2c1.6,1.7,3.4,3,5.6,3.9c2.1,0.9,4.4,1.3,6.9,1.3c1.6,0,3-0.1,4.2-0.3
		c1.2-0.2,2.4-0.5,3.4-0.9c1-0.4,2-0.9,2.9-1.5c0.9-0.6,1.8-1.3,2.6-2.1c0.1-0.1,0.2-0.1,0.3-0.2S462,459.3,462.1,459.3z"/>
	<path class="st0" d="M506.2,466.7H503v-21h-27.5v21h-3.2v-43.9h3.2v20.5H503v-20.5h3.2V466.7z"/>
</g>
<circle class="st17" cx="927" cy="296.3" r="6.9"/>
<circle class="st21" cx="867" cy="254.4" r="5.2"/>
<circle class="st22" cx="915.3" cy="252.8" r="13.7"/>
<circle class="st6" cx="880.8" cy="218.5" r="8.4"/>
<circle class="st6" cx="890.4" cy="294" r="13.7"/>
<circle cx="949.5" cy="234.5" r="5.2"/>
</svg>
