<?xml version="1.0" encoding="utf-8"?>
<!-- Generator: Adobe Illustrator 16.0.3, SVG Export Plug-In . SVG Version: 6.00 Build 0)  -->
<!DOCTYPE svg PUBLIC "-//W3C//DTD SVG 1.1//EN" "http://www.w3.org/Graphics/SVG/1.1/DTD/svg11.dtd">
<svg version="1.1" id="Layer_1" xmlns="http://www.w3.org/2000/svg" xmlns:xlink="http://www.w3.org/1999/xlink" x="0px" y="0px"
	 width="595.28px" height="841.89px" viewBox="0 0 595.28 841.89" enable-background="new 0 0 595.28 841.89" xml:space="preserve">
<g>
	<defs>
		<circle id="SVGID_1_" cx="-317" cy="21" r="151"/>
	</defs>
	<clipPath id="SVGID_2_">
		<use xlink:href="#SVGID_1_"  overflow="visible"/>
	</clipPath>
	
		<rect x="-492" y="21" clip-path="url(#SVGID_2_)" fill="#EE7E77" stroke="#FFFFFF" stroke-width="10" stroke-miterlimit="10" width="376" height="209.001"/>
	<polygon clip-path="url(#SVGID_2_)" fill="#5E93BC" stroke="#FFFFFF" stroke-width="10" stroke-miterlimit="10" points="
		-117.001,125.5 -316.36,21.001 -316.36,-188 -118.002,-188 	"/>
	<polygon clip-path="url(#SVGID_2_)" fill="#59B466" stroke="#FFFFFF" stroke-width="10" stroke-miterlimit="10" points="-316,21 
		-491,125.5 -491,-188 -316,-188 	"/>
	<use xlink:href="#SVGID_1_"  overflow="visible" fill="none" stroke="#FFFFFF" stroke-width="10" stroke-miterlimit="10"/>
</g>
<g>
	<path fill="#414042" stroke="#FFFFFF" stroke-width="10" stroke-miterlimit="10" d="M-202.52-46.566
		c0,0-99.686,0.763-129.456,10.039c-13.493,4.204-38.709,17.483-47.787,28.619c-13.853,16.993-50.23,61.72-34.594,88.209
		c14.739,24.969,68.761,16.388,89.057,12.461c15.377-2.975,40.36-21.615,51.336-32.425C-251.862,38.566-202.52-46.566-202.52-46.566
		z"/>
	<g>
		<line fill="#FFFFFF" x1="-431.042" y1="89.299" x2="-248.413" y2="-20.076"/>
		<polygon fill="#FFFFFF" points="-433.61,85.01 -248.413,-20.076 -428.473,93.589 		"/>
	</g>
	<g>
		<line fill="#FFFFFF" x1="-300.171" y1="-5.396" x2="-318.709" y2="22.023"/>
		<path fill="#FFFFFF" d="M-300.171-5.396c0,0,0.021,0.17,0.028,0.468c-0.002,0.292,0.031,0.743,0.003,1.27
			c-0.037,1.067-0.184,2.529-0.538,4.162c-0.355,1.632-0.91,3.443-1.689,5.257c-0.772,1.818-1.78,3.634-2.932,5.353
			c-1.16,1.713-2.467,3.326-3.865,4.722c-1.391,1.401-2.862,2.59-4.248,3.527c-1.384,0.937-2.689,1.615-3.668,2.046
			c-0.48,0.222-0.912,0.359-1.183,0.468c-0.281,0.103-0.446,0.147-0.446,0.147s-0.021-0.17-0.03-0.469
			c0-0.292-0.033-0.744-0.006-1.272c0.035-1.069,0.178-2.533,0.532-4.167c0.353-1.634,0.909-3.443,1.69-5.256
			c0.774-1.817,1.785-3.631,2.941-5.346c1.167-1.708,2.476-3.32,3.875-4.715c1.394-1.399,2.866-2.588,4.249-3.526
			s2.685-1.618,3.662-2.05c0.479-0.223,0.909-0.36,1.179-0.471C-300.336-5.352-300.171-5.396-300.171-5.396z"/>
	</g>
	<g>
		<line fill="#FFFFFF" x1="-354.114" y1="10.59" x2="-379.62" y2="58.503"/>
		<path fill="#FFFFFF" d="M-354.114,10.59c0,0-0.001,0.24-0.034,0.672c-0.044,0.427-0.071,1.073-0.18,1.856
			c-0.197,1.577-0.578,3.776-1.226,6.313c-0.642,2.541-1.564,5.412-2.721,8.399c-1.16,2.985-2.594,6.065-4.179,9.064
			c-1.596,2.994-3.349,5.904-5.175,8.534c-1.829,2.63-3.697,4.998-5.448,6.948c-1.745,1.954-3.359,3.496-4.561,4.538
			c-0.59,0.526-1.112,0.909-1.443,1.184c-0.341,0.269-0.54,0.403-0.54,0.403s0-0.24,0.033-0.673
			c0.043-0.427,0.069-1.074,0.176-1.857c0.194-1.578,0.572-3.779,1.218-6.317c0.64-2.542,1.562-5.414,2.722-8.399
			c1.163-2.984,2.598-6.063,4.19-9.059c1.603-2.99,3.357-5.899,5.186-8.528c1.832-2.628,3.699-4.997,5.449-6.948
			c1.743-1.954,3.355-3.498,4.553-4.542c0.589-0.527,1.11-0.911,1.439-1.186C-354.313,10.725-354.114,10.59-354.114,10.59z"/>
	</g>
	<g>
		<line fill="#FFFFFF" x1="-262.113" y1="-1.132" x2="-283.104" y2="2.702"/>
		<path fill="#FFFFFF" d="M-262.113-1.132c0,0-0.062,0.125-0.185,0.324c-0.125,0.184-0.298,0.512-0.54,0.813
			c-0.238,0.318-0.523,0.726-0.867,1.107c-0.342,0.391-0.734,0.792-1.17,1.191c-0.873,0.79-1.921,1.545-3.084,2.134
			c-1.162,0.597-2.441,1.016-3.752,1.264c-1.313,0.238-2.656,0.301-3.954,0.156c-1.296-0.137-2.543-0.472-3.639-0.905
			c-0.549-0.221-1.059-0.458-1.517-0.705c-0.456-0.237-0.867-0.518-1.203-0.733c-0.333-0.199-0.611-0.445-0.794-0.574
			c-0.185-0.144-0.287-0.24-0.287-0.24s0.062-0.125,0.185-0.326c0.125-0.186,0.298-0.514,0.539-0.817
			c0.237-0.32,0.523-0.729,0.866-1.111c0.342-0.393,0.734-0.794,1.169-1.195c0.872-0.792,1.921-1.546,3.085-2.133
			c1.162-0.594,2.442-1.011,3.754-1.252c1.313-0.23,2.658-0.291,3.956-0.143c1.297,0.139,2.544,0.475,3.64,0.906
			c0.548,0.22,1.058,0.456,1.516,0.701c0.456,0.235,0.867,0.516,1.202,0.729c0.333,0.197,0.611,0.443,0.793,0.57
			C-262.216-1.227-262.113-1.132-262.113-1.132z"/>
	</g>
	<g>
		<line fill="#FFFFFF" x1="-303.588" y1="40.478" x2="-348.311" y2="39.752"/>
		<path fill="#FFFFFF" d="M-303.588,40.478c0,0-0.177,0.109-0.507,0.278c-0.33,0.156-0.815,0.428-1.431,0.69
			c-1.232,0.547-2.991,1.216-5.098,1.803c-2.106,0.593-4.561,1.088-7.188,1.429c-2.626,0.336-5.425,0.473-8.22,0.437
			c-2.795-0.047-5.587-0.272-8.202-0.69c-2.614-0.421-5.051-0.997-7.138-1.66c-2.086-0.656-3.822-1.385-5.036-1.976
			c-0.607-0.283-1.083-0.572-1.408-0.74c-0.325-0.18-0.498-0.295-0.498-0.295s0.176-0.11,0.507-0.279
			c0.33-0.158,0.815-0.431,1.431-0.694c1.232-0.55,2.991-1.223,5.097-1.811c2.106-0.595,4.561-1.092,7.188-1.427
			c2.626-0.333,5.425-0.468,8.22-0.424c2.795,0.055,5.587,0.282,8.202,0.703c2.614,0.425,5.051,1,7.137,1.661
			c2.087,0.654,3.822,1.38,5.036,1.967c0.606,0.282,1.083,0.569,1.407,0.736C-303.761,40.363-303.588,40.478-303.588,40.478z"/>
	</g>
</g>
<g display="none">
	<g display="inline">
		<path fill="#8DC63F" d="M259.508,33.978c0,0-158.305,31.771-188.447,98.873c-9.908,22.055-28.45,69.315-4.477,93.322
			c22.596,22.626,73.163,5.654,94.109-3.353C227.028,194.298,259.508,33.978,259.508,33.978z"/>
		<g>
			<path fill="#8EC741" d="M257.514,26.746c-18.463,3.714-36.717,8.874-54.666,14.526c-34.128,10.748-68.602,24.168-98.212,44.568
				c-13.726,9.456-26.466,20.711-35.519,34.835c-4.499,7.018-7.534,15.004-10.583,22.723c-3.937,9.964-7.155,20.229-9.188,30.755
				c-4.036,20.912-2.847,46.068,15.346,60.292c17.372,13.581,41.525,11.601,61.82,7.306c16.613-3.516,34.862-9.027,49.068-18.622
				c13.779-9.307,24.543-22.406,33.726-36.105c19.833-29.589,32.757-63.975,43.339-97.794c5.474-17.491,10.444-35.283,14.095-53.257
				c1.917-9.442-12.54-13.463-14.465-3.987c-3.714,18.291-8.812,36.375-14.381,54.174c-10.441,33.368-23.4,66.88-43.279,95.86
				c-8.497,12.386-18.885,23.986-31.703,31.341c-6.55,3.759-13.563,6.106-21.191,8.649c-9.738,3.245-19.848,5.918-30.048,7.187
				c-18.733,2.33-40.382-0.137-47.195-20.652c-6.526-19.654,1.362-42.777,8.521-61.157c5.775-14.828,13.109-26.545,24.831-37.251
				c12.728-11.625,27.891-20.504,43.188-28.284c29.582-15.044,61.468-25.611,93.474-34.15c8.938-2.385,17.938-4.665,27.011-6.49
				C270.98,39.303,266.958,24.845,257.514,26.746z"/>
		</g>
	</g>
	<g display="inline">
		<line fill="#8DC63F" x1="49.939" y1="247.021" x2="203.31" y2="93.614"/>
		<g>
			<path fill="#FFFFFF" d="M53.475,250.557c34.116-34.124,68.231-68.248,102.348-102.371c17.008-17.012,34.016-34.024,51.022-51.036
				c4.563-4.564-2.508-11.635-7.07-7.071c-34.116,34.125-68.231,68.248-102.348,102.372c-17.008,17.013-34.016,34.024-51.022,51.036
				C41.841,248.05,48.912,255.121,53.475,250.557L53.475,250.557z"/>
		</g>
	</g>
	<g display="inline">
		<line fill="#8DC63F" x1="93.141" y1="149.459" x2="93.141" y2="202.13"/>
		<g>
			<path fill="#FFFFFF" d="M88.141,149.459c0,17.557,0,35.114,0,52.671c0,6.448,10,6.448,10,0c0-17.557,0-35.114,0-52.671
				C98.141,143.011,88.141,143.011,88.141,149.459L88.141,149.459z"/>
		</g>
	</g>
	<g display="inline">
		<line fill="#8DC63F" x1="164.877" y1="178.787" x2="121.315" y2="178.787"/>
		<g>
			<path fill="#FFFFFF" d="M164.877,173.787c-14.521,0-29.041,0-43.562,0c-6.448,0-6.448,10,0,10c14.521,0,29.041,0,43.562,0
				C171.325,183.787,171.325,173.787,164.877,173.787L164.877,173.787z"/>
		</g>
	</g>
	<g display="inline">
		<line fill="#8DC63F" x1="139.765" y1="122.894" x2="139.765" y2="153.993"/>
		<g>
			<path fill="#FFFFFF" d="M134.765,122.894c0,10.366,0,20.733,0,31.1c0,6.448,10,6.448,10,0c0-10.366,0-20.733,0-31.1
				C144.765,116.445,134.765,116.445,134.765,122.894L134.765,122.894z"/>
		</g>
	</g>
	<g display="inline">
		<line fill="#8DC63F" x1="194.19" y1="127.699" x2="172.756" y2="127.699"/>
		<g>
			<path fill="#FFFFFF" d="M194.19,122.699c-7.145,0-14.29,0-21.435,0c-6.448,0-6.448,10,0,10c7.145,0,14.29,0,21.435,0
				C200.639,132.699,200.639,122.699,194.19,122.699L194.19,122.699z"/>
		</g>
	</g>
	<g display="inline">
		<path fill="#8DC63F" d="M139.305,123.743c-2.372,0-4.601-0.926-6.274-2.606c-1.668-1.676-2.585-3.9-2.581-6.266
			c0.005-2.365,0.931-4.588,2.606-6.257c1.671-1.664,3.89-2.582,6.249-2.582c2.371,0,4.599,0.926,6.272,2.606
			c3.446,3.458,3.436,9.075-0.022,12.522C143.884,122.826,141.664,123.743,139.305,123.743z"/>
		<path fill="#FFFFFF" d="M139.305,109.033c1.502,0,3.004,0.574,4.147,1.723c2.283,2.291,2.275,5.997-0.016,8.28
			c-1.142,1.138-2.637,1.707-4.132,1.707c-1.502,0-3.004-0.575-4.148-1.724c-2.281-2.29-2.275-5.997,0.017-8.279
			C136.315,109.602,137.81,109.033,139.305,109.033 M139.305,103.032c-3.158,0-6.13,1.229-8.367,3.458
			c-2.242,2.233-3.482,5.208-3.488,8.375s1.222,6.146,3.456,8.389c2.24,2.25,5.224,3.489,8.399,3.489
			c3.159,0,6.13-1.228,8.367-3.457c2.243-2.235,3.481-5.21,3.488-8.375c0.006-3.167-1.223-6.147-3.458-8.391
			C145.462,104.271,142.479,103.032,139.305,103.032L139.305,103.032z"/>
	</g>
	<g display="inline">
		<path fill="#8DC63F" d="M172.757,187.642c-2.372,0-4.601-0.926-6.274-2.606c-3.446-3.457-3.436-9.074,0.022-12.521
			c1.672-1.665,3.892-2.582,6.251-2.582c2.371,0,4.599,0.925,6.272,2.605c1.67,1.676,2.587,3.901,2.582,6.266
			c-0.004,2.366-0.93,4.588-2.605,6.258C177.335,186.725,175.115,187.642,172.757,187.642z"/>
		<path fill="#FFFFFF" d="M172.756,172.932c1.502,0,3.004,0.574,4.147,1.723c2.282,2.291,2.276,5.998-0.016,8.28
			c-1.142,1.138-2.637,1.707-4.131,1.707c-1.503,0-3.005-0.575-4.149-1.724c-2.282-2.29-2.274-5.997,0.016-8.279
			C169.766,173.5,171.261,172.932,172.756,172.932 M172.756,166.932L172.756,166.932c-3.158,0-6.13,1.228-8.367,3.456
			c-2.243,2.236-3.481,5.21-3.488,8.376c-0.006,3.167,1.222,6.146,3.457,8.39c2.24,2.249,5.224,3.488,8.399,3.488
			c3.158,0,6.129-1.228,8.366-3.457c2.243-2.233,3.482-5.209,3.488-8.376c0.005-3.166-1.223-6.146-3.457-8.389
			C178.913,168.17,175.931,166.932,172.756,166.932L172.756,166.932z"/>
	</g>
	<g display="inline">
		<path fill="#8DC63F" d="M93.141,153.217c-2.371,0-4.6-0.925-6.273-2.604c-3.447-3.463-3.436-9.08,0.024-12.523
			c1.67-1.665,3.891-2.583,6.249-2.583c2.371,0,4.599,0.926,6.271,2.605c1.67,1.676,2.587,3.902,2.583,6.268
			c-0.005,2.365-0.93,4.588-2.606,6.257C97.718,152.3,95.499,153.217,93.141,153.217z"/>
		<path fill="#FFFFFF" d="M93.141,138.506c1.502,0,3.003,0.575,4.146,1.723c2.283,2.292,2.276,5.999-0.016,8.282
			c-1.142,1.138-2.637,1.706-4.131,1.706c-1.502,0-3.005-0.574-4.149-1.723c-2.281-2.292-2.275-5.998,0.017-8.279
			C90.151,139.075,91.646,138.507,93.141,138.506 M93.142,132.506L93.142,132.506c-3.159,0.001-6.132,1.229-8.369,3.459
			c-2.242,2.231-3.481,5.207-3.488,8.374c-0.006,3.165,1.221,6.145,3.454,8.388c2.245,2.252,5.229,3.49,8.402,3.49
			c3.158,0,6.129-1.228,8.365-3.455c2.244-2.235,3.483-5.211,3.489-8.378c0.006-3.166-1.222-6.146-3.457-8.39
			C99.298,133.745,96.315,132.506,93.142,132.506L93.142,132.506z"/>
	</g>
	<g display="inline">
		<path fill="#8DC63F" d="M200.926,136.554c-2.371,0-4.6-0.926-6.273-2.606c-3.445-3.458-3.435-9.075,0.022-12.521
			c1.673-1.666,3.893-2.583,6.252-2.583c2.372,0,4.6,0.926,6.272,2.605c3.445,3.46,3.435,9.078-0.024,12.523
			C205.504,135.637,203.284,136.554,200.926,136.554z"/>
		<path fill="#FFFFFF" d="M200.927,121.843c1.502,0,3.003,0.574,4.146,1.723c2.282,2.291,2.275,5.999-0.016,8.281
			c-1.143,1.138-2.637,1.707-4.132,1.707c-1.502,0-3.004-0.575-4.148-1.724c-2.282-2.291-2.274-5.997,0.016-8.279
			C197.936,122.412,199.432,121.843,200.927,121.843 M200.927,115.843L200.927,115.843c-3.159,0.001-6.131,1.229-8.368,3.457
			c-4.63,4.614-4.645,12.135-0.032,16.765c2.241,2.25,5.225,3.489,8.399,3.489c3.158,0,6.129-1.228,8.366-3.456
			c2.243-2.235,3.482-5.21,3.488-8.377s-1.222-6.146-3.456-8.39C207.085,117.082,204.103,115.843,200.927,115.843L200.927,115.843z"
			/>
	</g>
	<g display="inline">
		<path fill="#8DC63F" d="M208.536,96.822c-2.372,0-4.601-0.926-6.274-2.607c-3.445-3.46-3.434-9.077,0.025-12.522
			c1.67-1.665,3.89-2.582,6.25-2.582c2.371,0,4.599,0.925,6.272,2.606c1.669,1.675,2.586,3.9,2.582,6.266
			c-0.005,2.366-0.931,4.588-2.606,6.258C213.115,95.905,210.896,96.822,208.536,96.822z"/>
		<path fill="#FFFFFF" d="M208.537,82.111c1.502,0,3.003,0.574,4.146,1.723c2.283,2.291,2.276,5.999-0.016,8.281
			c-1.143,1.138-2.637,1.707-4.132,1.707c-1.502,0-3.005-0.575-4.148-1.724c-2.281-2.291-2.274-5.998,0.017-8.279
			C205.547,82.681,207.042,82.111,208.537,82.111 M208.537,76.111L208.537,76.111c-3.16,0-6.132,1.229-8.369,3.459
			c-4.629,4.609-4.645,12.13-0.032,16.762c2.241,2.251,5.225,3.49,8.4,3.49c3.159,0,6.13-1.228,8.367-3.457
			c2.243-2.233,3.482-5.208,3.488-8.376s-1.223-6.147-3.458-8.391C214.695,77.351,211.712,76.111,208.537,76.111L208.537,76.111z"/>
	</g>
</g>
</svg>
